<svg xmlns="http://www.w3.org/2000/svg" viewBox="0 0 32 32" fill="none">
  <rect width="32" height="32" rx="16" fill="#0F9F8F"/>
  <path d="M8 8h6v6H8V8z" fill="#F9FAFB"/>
  <path d="M10 10h2v2h-2v-2z" fill="#0F9F8F"/>
  <path d="M18 8h6v6h-6V8z" fill="#F9FAFB"/>
  <path d="M20 10h2v2h-2v-2z" fill="#0F9F8F"/>
  <path d="M8 18h6v6H8v-6z" fill="#F9FAFB"/>
  <path d="M10 20h2v2h-2v-2z" fill="#0F9F8F"/>
  <path d="M18 18h2v2h-2v-2zM22 18h2v2h-2v-2zM18 22h2v2h-2v-2z" fill="#F9FAFB"/>
  <path d="M22 23.5l2-2 2 2" stroke="#FACC15" stroke-width="2" stroke-linecap="round" stroke-linejoin="round"/>
</svg>
